<svg width="24" height="24" viewBox="0 0 24 24" fill="none" xmlns="http://www.w3.org/2000/svg">
<path d="M8.29682 15.7266H9.67729C9.78744 15.7266 9.89291 15.6773 9.96557 15.593L11.9999 13.1672L14.0343 15.593C14.1046 15.6773 14.2101 15.7266 14.3226 15.7266H15.7031C15.8624 15.7266 15.9492 15.5414 15.846 15.4195L12.9796 12L15.8484 8.58047C15.9515 8.45859 15.8648 8.27344 15.7054 8.27344H14.3249C14.2148 8.27344 14.1093 8.32266 14.0367 8.40703L11.9999 10.8328L9.96557 8.40703C9.89526 8.32266 9.78979 8.27344 9.67729 8.27344H8.29682C8.13744 8.27344 8.05072 8.45859 8.15385 8.58047L11.0203 12L8.15385 15.4195C8.13075 15.4467 8.11593 15.4799 8.11115 15.5153C8.10637 15.5506 8.11183 15.5866 8.12688 15.6189C8.14193 15.6512 8.16595 15.6785 8.19607 15.6976C8.22619 15.7167 8.26116 15.7268 8.29682 15.7266V15.7266Z" fill="black"/>
<path d="M20.625 2.625H3.375C2.96016 2.625 2.625 2.96016 2.625 3.375V20.625C2.625 21.0398 2.96016 21.375 3.375 21.375H20.625C21.0398 21.375 21.375 21.0398 21.375 20.625V3.375C21.375 2.96016 21.0398 2.625 20.625 2.625ZM19.6875 19.6875H4.3125V4.3125H19.6875V19.6875Z" fill="black"/>
</svg>
