<svg width="24" height="24" viewBox="0 0 24 24" fill="none" xmlns="http://www.w3.org/2000/svg">
<path d="M10.5 5.25003C10.5002 6.11452 10.2017 6.95252 9.65499 7.62221C9.10831 8.29189 8.34703 8.75213 7.50001 8.92503V12H14.25C14.8467 12 15.419 11.763 15.841 11.341C16.263 10.9191 16.5 10.3468 16.5 9.75003V8.92503C15.5895 8.73917 14.7804 8.22184 14.2296 7.47334C13.6788 6.72484 13.4256 5.79849 13.519 4.87389C13.6124 3.94929 14.0458 3.0923 14.7351 2.46908C15.4245 1.84586 16.3207 1.5008 17.25 1.5008C18.1793 1.5008 19.0755 1.84586 19.7649 2.46908C20.4542 3.0923 20.8876 3.94929 20.981 4.87389C21.0744 5.79849 20.8212 6.72484 20.2704 7.47334C19.7196 8.22184 18.9105 8.73917 18 8.92503V9.75003C18 10.2425 17.903 10.7301 17.7146 11.1851C17.5261 11.6401 17.2499 12.0535 16.9017 12.4017C16.5534 12.7499 16.14 13.0261 15.6851 13.2146C15.2301 13.403 14.7425 13.5 14.25 13.5H7.50001V15.075C8.41054 15.2609 9.21963 15.7782 9.77041 16.5267C10.3212 17.2752 10.5744 18.2016 10.481 19.1262C10.3876 20.0508 9.95423 20.9078 9.26487 21.531C8.57552 22.1542 7.67932 22.4993 6.75001 22.4993C5.8207 22.4993 4.9245 22.1542 4.23514 21.531C3.54579 20.9078 3.1124 20.0508 3.019 19.1262C2.92559 18.2016 3.17883 17.2752 3.72961 16.5267C4.28039 15.7782 5.08948 15.2609 6.00001 15.075V8.92503C5.30482 8.78313 4.66416 8.44691 4.15242 7.95543C3.64069 7.46395 3.27889 6.83738 3.10904 6.14849C2.93919 5.45959 2.96827 4.73665 3.19289 4.06362C3.41751 3.39059 3.82846 2.7951 4.378 2.3463C4.92755 1.8975 5.59315 1.61382 6.29749 1.5282C7.00182 1.44258 7.716 1.55854 8.35707 1.8626C8.99813 2.16666 9.53978 2.64636 9.91911 3.24597C10.2984 3.84558 10.4999 4.54051 10.5 5.25003V5.25003Z" fill="black"/>
</svg>
