<svg width="24" height="24" viewBox="0 0 24 24" fill="none" xmlns="http://www.w3.org/2000/svg">
<path d="M14.742 1.08301C14.8406 1.08283 14.9382 1.10208 15.0293 1.13966C15.1204 1.17724 15.2032 1.23241 15.273 1.30201L22.698 8.72701C22.8386 8.86765 22.9176 9.05839 22.9176 9.25726C22.9176 9.45613 22.8386 9.64686 22.698 9.78751C21.978 10.5075 21.09 10.6695 20.4435 10.6695C20.178 10.6695 19.941 10.6425 19.7535 10.611L15.0525 15.312C15.1763 15.8106 15.2566 16.319 15.2925 16.8315C15.3615 17.8845 15.2445 19.362 14.2125 20.394C14.0719 20.5346 13.8811 20.6136 13.6822 20.6136C13.4834 20.6136 13.2926 20.5346 13.152 20.394L8.9085 16.152L4.1355 20.925C3.843 21.2175 2.307 22.278 2.0145 21.9855C1.722 21.693 2.7825 20.1555 3.075 19.8645L7.848 15.0915L3.606 10.848C3.4654 10.7074 3.38641 10.5166 3.38641 10.3178C3.38641 10.1189 3.4654 9.92815 3.606 9.78751C4.638 8.75551 6.1155 8.63701 7.1685 8.70751C7.68099 8.74342 8.18939 8.82372 8.688 8.94751L13.389 4.24801C13.3498 4.01958 13.3297 3.78828 13.329 3.55651C13.329 2.91151 13.491 2.02351 14.2125 1.30201C14.3531 1.16181 14.5435 1.08305 14.742 1.08301V1.08301ZM14.925 4.25101V4.24801V4.25101ZM14.925 4.24801V4.25101C14.9683 4.38296 14.9741 4.52435 14.9418 4.65942C14.9095 4.7945 14.8403 4.91794 14.742 5.01601L9.4395 10.317C9.34098 10.4151 9.21712 10.4839 9.08177 10.5157C8.94642 10.5475 8.80489 10.541 8.673 10.497H8.67L8.649 10.491C8.50629 10.4483 8.36222 10.4102 8.217 10.377C7.83966 10.289 7.45597 10.2308 7.0695 10.203C6.4365 10.161 5.8155 10.215 5.307 10.428L13.572 18.6915C13.7835 18.1815 13.8375 17.562 13.7955 16.929C13.7573 16.3931 13.6607 15.863 13.5075 15.348L13.5015 15.3285V15.327C13.4572 15.1949 13.4506 15.0531 13.4824 14.9174C13.5142 14.7818 13.5831 14.6577 13.6815 14.559L18.9855 9.25651C19.0876 9.15375 19.2174 9.08277 19.359 9.05216C19.5006 9.02155 19.648 9.03261 19.7835 9.08401L19.9275 9.11701C20.058 9.14251 20.2395 9.16801 20.4435 9.16801C20.6145 9.16801 20.7885 9.15151 20.958 9.10801L14.8905 3.04201C14.847 3.21151 14.8305 3.38701 14.8305 3.55651C14.8312 3.78958 14.8625 4.02156 14.9235 4.24651L14.925 4.24801Z" fill="black"/>
</svg>
